<?xml version="1.0" encoding="UTF-8"?><svg id="Layer_2" xmlns="http://www.w3.org/2000/svg" viewBox="0 0 1108.68 1024"><defs><style>.cls-1{fill:#fdfdfc;}.cls-2{fill:#5e882a;}.cls-3{fill:#d3713a;}.cls-4{fill:#eeb157;}.cls-5{fill:#e9e6d6;}.cls-6{fill:#2c1e14;}</style></defs><path class="cls-2" d="M439.7,332c-2.27,7.08-1.95,16.95-6,23.99l7-1.99c-2.07,6.94-.29,15.67,3,21.99l-8.51-4.98c-.67-.22-.73.95-.49,1.48.18.39,4.6,6.65,4.96,7.04,1.81,1.95,4.92,1.98,6.03,4.46-5.85,1.97-12.36-4.4-16.49-5.01-1.38-.2-1.92.02-1.49,1.5,1.36,4.67,10.69,11.46,15.98,10.53l-8.99,2.98c3.9,1.72,7.5,3.73,12,3.01.65,10.72-2.24,29.47-11.08,36.43-6.65,5.24-19.65,7.02-1.91,12.09-4.39,9.24-9.19,18.53-10,29-.48,6.22-1.49,7.91,5,8-2.46,13.66-7.52,31.26-5,44.97.67,3.63,3.32,2.73,5.98,1.51,1.62,2.17-6.71,43.55-10.97,48.51,2.46,4.51,14.99-3.56,15.97-2.5l-8.02,45.51c-.06,4.16,7.37,1.82,8.03,2.49-2.41,18.85-6.97,38.66-16,55.51,2,.73,5.43.8,7.52.52,2.62-.34,4.38-2.29,6.49-1.51-2.46,7.87-4.22,16.07-7.25,23.75-2.3,5.81-9.04,15.82-9.76,21.25-.3,2.24.35,1.13,1.47,1.5,4.16,1.38,7.59.77,11.52-1.02l-2.99,10c-7.44,3.18-9.7,12.14-11.98,13.51-6.8,4.08-7.22-4.98-10.47-8.56-10.83-11.89-52.17-10.08-53.55,12.05-4.31-2.22-8.76-5.9-12.47-9.03-126.31-106.25-156.35-285.36-73.7-428.65,25.42-44.07,61.82-84.09,104.17-112.33.29,23.11,9,53.95,19.83,74.67,11.53,22.07,30.19,45.42,52.17,57.33Z"/><path class="cls-2" d="M891.7,500c-3.07,74.5-30.74,142.97-78,200-3.12-3.58-7.53-8.23-10.99-11.51-1.67-1.59-8.37-5.76-8.85-7.14-1.02-2.94,2.62-28.61,3.88-32.79,5.48-18.12,22.88-12.75,34.03-18.97,12.33-6.89,20.54-44.06,23.44-57.56,3.29-15.28,11.31-39.83-.99-52.04-13.53-13.43-73.74-18-93.08-17.02-16.67.85-33.43,3.64-35.44,23.56-1.83,18.1-.48,75.39,8.79,90.18,8.6,13.72,33.28,9.08,33.27,33.81l-2.24,27.33c-18.05,5.37-33.28,25.28-24.4,44.23.77,1.65,3.31,3.82,3.45,4.58.12.69-3.67,7.96-2.88,13.36-5.6-5.82-10.32-8.26-18.52-8.98-12.58-1.12-25.26.76-32.48,11.98l-6.99-17c5.12,1.55,10.27,3.74,14.95-.49-9.21-14.97-13.92-31.66-19.95-48.02,2.57-.9,13.14,5.44,13.99.98.16-.86-6.05-13.26-7.02-15.95-3.64-10.17-5.25-20.89-8.96-31.03l12.97,2.51c-5.69-18.09-11.01-37.14-11.48-56.01,3.74,1.12,7.5,2.44,11.49,2.02l-10.02-52.49,7.01.49c0-12.46.9-24.98-2.99-36.99h6c-1.11-14.44-3.2-29.56-12-41.52,14.36-8.27,6.38-4.73-.52-10.47-8.23-6.85-12.84-32.47-11.39-42.92.5-.43,12.99.21,10.39-4.11-1.62.57-3.17,1.1-4.93,1.06-1.02-.02-5.45-.51-5.55-2.03,5.3.83,15.26-2.11,16.78-7.73,2.34-8.64-5.11-.99-8.96.04-2.66.71-5.08.89-7.81.68l7.54-4.95c1.86-3.23,5.75-7.51,4.96-11.04l-4.48,3.51c1.55-3.89,1.4-8.51,1.51-12.47.04-1.55-2.08-3.52,1.46-3.04,7.25,3.56,4.45-4.34,2.87-8.37-.9-2.28-8.35-13.94-7.87-14.61,42.99-27.43,69.93-79.07,71-130.02,3.7.95,7.24,3.93,10.33,6.17,73.41,53.05,124.95,139.42,136.52,229.47.74,5.77,1.36,11.44,2.73,38.66"/><path class="cls-1" d="M788.7,807l10.86-18.64c1.77-2.56,2.09-6.92,3.14-9.36,1.31-3.03,2.71-5.88,4-9,1.57-3.77,5.07-6.22,3.99-11-4.61.06-8.23,2.15-12.99,2-9.19-.29-15.66-11.6-27-11-1.89-6.91-8.8-3.48-10,2-.9.25-2.03,1.56-3,2,2.34-9.26,13.15-18.5,20-25,5.1-1.22,10.51-1.73,15.57-2.97,1.7-.42,2.9.99,2.43-2.03h-24.5c-4.8,0-17.46,7.01-19.5,12,2.53-15.08,18.79-23.22,29-33,1.82.14,5.17-1.26,7-2,8.5-3.45,4.7-5.54-2.53-6-9-.57-15.92,4.65-22.06,5.01-2.76.16-5.58-3.74-9.41-3.01,6.67-10.21,20.66-15.96,32.39-10.89,7.59,3.28,26.59,25.62,30.78,33.22,14.7,26.71,1.35,75.95-28.17,87.67Z"/><path class="cls-5" d="M797.7,761c4.76.15,8.39-1.93,12.99-2,1.07,4.78-2.43,7.22-3.99,11-4.3-.07-8.6,5.08-11.71,5.79-2.88.66-13.37-.38-14.19.32-.76.65-1.57,10.43-1.11,10.89,4.25.09,9.03.19,13-1.5s5.35-6.6,10-6.5c-1.05,2.44-1.37,6.79-3.14,9.36l-10.86,18.64c-4.37,1.74-9.13,4.29-14.01,2.49,4.25-11.28,1.66-23.06,5.15-34.35,8.69-.37,17.22,1.61,22.86-6.64-3.51-.55-6.85,1.18-10.52.49-2.07-.39-2.23-1.87-2.47-1.98,7.17,2.2,6.25.4,8-6Z"/><path class="cls-4" d="M770.7,750c11.34-.6,17.81,10.71,27,11-1.75,6.4-.83,8.2-8,6-8.38-3.87-11.68-10.3-22.27-6.77-3.62,1.2-6.02,4.15-9.71,4.77-1.71-4.36-1.06-6.85-.01-11,.97-.44,2.1-1.75,3-2,2.15-.61,7.91-1.89,10-2Z"/><path class="cls-5" d="M787.7,701c-4.92-4.29-16.05.47-21,3.5,4.01,1.43,8.77-2.65,12.54-3.48.91-.2.23,1.61.46,1.98-4.93,1.71-11.37,2.83-16,5,.32-.17,1.14-2.15,2-2.5-2.37-1.61-5.62,1.5-6.99,3.5,1.24-.58,4.2-.58,4.99-.99-1.39.65-5.28,3.04-6.5,4-2.56,2.02-4.96,6.37-6.49,7.53-.84.64-1.7-.45-2.06-.98-2.82-4.18,2.31-17.37,5.05-21.55,3.83-.73,6.65,3.18,9.41,3.01,6.14-.36,13.06-5.58,22.06-5.01,7.23.46,11.03,2.54,2.53,6Z"/><path class="cls-4" d="M751.7,736c2.04-4.99,14.7-12,19.5-12h24.5c.47,3.02-.73,1.61-2.43,2.03-5.06,1.24-10.47,1.75-15.57,2.97-6.52,1.56-13.26,2.67-18.94,6.56-1.88,1.29-6.63,8.33-8.05,3.88-.61-1.93.89-2.9.98-3.44Z"/><path class="cls-4" d="M787.7,701c-1.83.74-5.18,2.14-7,2-.34-.03-.95.08-1,0-.23-.37.45-2.18-.46-1.98-3.76.83-8.53,4.92-12.54,3.48,4.95-3.04,16.08-7.8,21-3.5Z"/><path class="cls-6" d="M813.7,700c5.17,5.93,9.66,11.26,12.86,18.64,16.29,37.64-6.38,101.63-53.86,100.36-1.59-10.06-12.04-32.47-16.25-43.25-3.46-8.87-13.61-27.91-14.75-35.75-.78-5.4,3-12.67,2.88-13.36-.13-.75-2.67-2.93-3.45-4.58-8.89-18.95,6.35-38.86,24.4-44.23l2.24-27.33c0-24.73-24.67-20.09-33.27-33.81-9.27-14.8-10.62-72.09-8.79-90.18,2.01-19.92,18.77-22.71,35.44-23.56,19.33-.98,79.54,3.59,93.08,17.02,12.3,12.21,4.27,36.76.99,52.04-2.9,13.5-11.11,50.67-23.44,57.56-11.14,6.22-28.55.85-34.03,18.97-1.27,4.18-4.9,29.85-3.88,32.79.48,1.38,7.17,5.55,8.85,7.14,3.46,3.29,7.86,7.93,10.99,11.51ZM785.61,676.91c2.51-18.97.16-41.8,21.4-50.1,8.3-3.24,17.55-1.42,23.66-8.34,9.45-10.69,19.69-59.74,21.01-74.98,1.04-11.98,1.51-16.65-10.72-21.27-19.01-7.18-75.21-12.32-94.54-7.99-8.27,1.85-10.89,5.99-11.72,14.28-1.65,16.45-1.01,64.6,4.8,79.18,4.72,11.84,13.35,9.88,22.51,15.49,11.92,7.3,15.01,19.92,13.67,33.31l-1.98,20.51,11.9-.09ZM753.7,697c-2.73,4.18-7.86,17.37-5.05,21.55.36.53,1.22,1.62,2.06.98,1.53-1.16,3.93-5.5,6.49-7.53,1.22-.97,5.11-3.35,6.5-4,4.63-2.17,11.07-3.29,16-5,.05.08.66-.03,1,0-10.21,9.78-26.47,17.92-29,33-.09.53-1.6,1.51-.98,3.44,1.42,4.45,6.16-2.58,8.05-3.88,5.67-3.9,12.41-5,18.94-6.56-6.85,6.5-17.66,15.74-20,25-1.05,4.15-1.7,6.64.01,11,3.7-.62,6.1-3.56,9.71-4.77,10.6-3.53,13.9,2.9,22.27,6.77.25.11.4,1.59,2.47,1.98,3.67.7,7.01-1.03,10.52-.49-5.63,8.25-14.17,6.27-22.86,6.64-3.49,11.29-.9,23.08-5.15,34.35,4.89,1.8,9.64-.75,14.01-2.49,29.51-11.71,42.87-60.96,28.17-87.67-4.18-7.6-23.18-29.94-30.78-33.22-11.73-5.07-25.71.68-32.39,10.89Z"/><path class="cls-1" d="M785.61,676.91l-11.9.09,1.98-20.51c1.34-13.39-1.75-26.01-13.67-33.31-9.16-5.61-17.79-3.66-22.51-15.49-5.81-14.58-6.45-62.72-4.8-79.18.83-8.28,3.45-12.42,11.72-14.28,19.33-4.33,75.53.81,94.54,7.99,12.23,4.62,11.76,9.28,10.72,21.27-1.33,15.24-11.57,64.3-21.01,74.98-6.11,6.92-15.37,5.09-23.66,8.34-21.24,8.3-18.89,31.12-21.4,50.1ZM755.71,583c4.23.48,6.22-.18,6.93-4.56,2.27-14.1,1.39-28.89,4.12-42.98-4.55-10.53-7.05-1.03-7.93,5.17-1.97,13.92-2.03,28.4-3.12,42.37ZM783.39,533.11c-1.37.34-2.52,2.02-2.63,3.45l-5.8,46.18c3.6,6.54,6.24,3.53,7.45-2.52,2.69-13.43,2.53-29.13,5.34-42.76.16-2.35-1.83-4.97-4.36-4.35ZM795.82,587.88c2.04.35,4.94.69,5.69-1.56,1.28-14.55,5.28-29.24,6.18-43.83.59-9.61-5.15-10.52-6.74-2.75-2.05,10.01-5.9,35.36-5.88,44.96,0,1.13.27,2.16.76,3.17ZM823.35,537.12c-1.39.45-2.07,2.29-2.41,3.61l-6.18,45.86c.04,3.52,6.87,3.46,6.97-.13l5.98-42.99c.21-3.37.42-7.88-4.35-6.36Z"/><path class="cls-2" d="M755.71,583c1.09-13.97,1.15-28.45,3.12-42.37.88-6.21,3.37-15.71,7.93-5.17-2.73,14.09-1.85,28.88-4.12,42.98-.7,4.38-2.7,5.04-6.93,4.56Z"/><path class="cls-2" d="M795.82,587.88c-.49-1.01-.76-2.04-.76-3.17-.02-9.61,3.83-34.96,5.88-44.96,1.59-7.77,7.33-6.86,6.74,2.75-.89,14.59-4.89,29.28-6.18,43.83-.75,2.26-3.65,1.91-5.69,1.56Z"/><path class="cls-2" d="M783.39,533.11c2.53-.62,4.52,1.99,4.36,4.35-2.82,13.63-2.65,29.33-5.34,42.76-1.21,6.05-3.85,9.06-7.45,2.52l5.8-46.18c.11-1.44,1.26-3.11,2.63-3.45Z"/><path class="cls-2" d="M823.35,537.12c4.76-1.53,4.56,2.98,4.35,6.36l-5.98,42.99c-.1,3.58-6.93,3.65-6.97.13l6.18-45.86c.34-1.32,1.02-3.17,2.41-3.61Z"/><path class="cls-4" d="M806.7,770c-1.29,3.12-2.69,5.97-4,9-4.65-.1-5.86,4.74-10,6.5s-8.76,1.59-13,1.5c-.46-.46.35-10.25,1.11-10.89.81-.69,11.31.35,14.19-.32,3.11-.71,7.41-5.86,11.71-5.79Z"/><path class="cls-5" d="M770.7,750c-2.09.11-7.85,1.39-10,2,1.2-5.48,8.11-8.91,10-2Z"/><path class="cls-4" d="M763.7,708c-.79.41-3.75.41-4.99.99,1.37-2,4.62-5.11,6.99-3.5-.85.36-1.67,2.34-2,2.5Z"/><path class="cls-1" d="M742.7,203c-1.07,50.94-28,102.59-71,130.02-.48.68,6.97,12.33,7.87,14.61,1.58,4.03,4.38,11.93-2.87,8.37-.7-.34-11.47-8.47-12-9-4.3-4.3-8.97-15.54-14.03-21.47s-9.3-9.85-14.53-16.47-15.33-13.12-23.43-13.57c15.99,11.98,34.25,28.3,44.17,45.83,5.21,9.2,7.44,17.45,9.83,27.67-.88,3.89-1.47,8.22-6.37,8.86-3.56-1.84-2.97-6.4-4.44-9.55-13.61-29.11-51.63-16.5-55.18,11.69,7.35-10.08,18.21-20.41,31.46-21.05,11.21-.54,20.65,6.64,21.52,18.04-3.57-.7-5.14-4.29-8.28-6.21-16.06-9.79-33.22-.9-40.57,14.85-9.03,19.37,3.71,2.22,10.35-.65.37,1.42-1.23,2.79-1.43,4.61-.16,1.48-.05,2.93-.06,4.4l-1.01-1.99h-.98c-.41,2.35-.86,4.59-1.01,6.99-.33,5.09-.2,11.03,1,16,.15.61.96.9,1,1,.11.31-.12.73,0,1,4.29,10.05,14.89,16.38,25,11,6.76-1.31,11.63-10.6,12-17,.04-.66-.03-1.34,0-2,1.78-3.04,3.65-6.96,4.01-10.51.11-1.06.57-2.76-.99-2.48l-3,5.99c.9-4.89,1.9-9.65-.02-14.48.28-1.09,1.33-.61,2.03-.03,4.93,4.03,6.13,21.74,8.06,28.94,2.99,11.14,7.19,24.62,19.92,27.59-1.76,3.59-6.89,1.72-9.94,1.42-5.1-.51.59,3.2,1.78,5.24,5.08,8.7,7.43,18.49,9.16,28.33-1.26,1.03-9.7-4.99-11.46-6.03-.77-.46-1.76-2.01-2.55-.45,10.04,13.22,13.06,29.09,13,45.49-5.2-2.16-7.22-7.06-10.15-11.34-.71-1.03-2-3.13-1.85-.16l12,63.49-5.66-2.33-8.35-10.15,12,64.49c-5.05-2.04-7.58-6.94-10.9-10.36-.88-.91-1.39-1.47-2.1-.13l14,57.49c-2.48-.89-4.78-1.98-6.9-3.59-2.4-1.82-4.02-6.26-6.1-4.9l19,56.01c1.22,4.06-7.99-2.44-8.9-3.11-1.72-1.26-3.04-2.97-4.59-4.41-1.16,1.05-.36,3.67-.04,5.04,2.48,10.67,8.54,22.22,12.49,32.51,6.31,4.6,5.68-1.41,7.06-3.55,7.22-11.23,19.9-13.1,32.48-11.98,8.2.73,12.92,3.16,18.52,8.98,1.14,7.84,11.29,26.88,14.75,35.75,4.21,10.78,14.66,33.19,16.25,43.25,3.76,23.79-9.85,29.51-31,29.01,7.78,17.22-12.94,29.63-20.86,42.72l.37,3.22c6.11,11.02,24.92,28.71,23.4,41.45-2.2,18.44-42.61,24.12-52.42,8.64-4.19,4.26-9.21,6.92-15.11,7.85-12.13,1.91-28.19.66-33.91-11.92-25.62,19.19-63.41,17.28-84.01-7.98-6.31,4.61-11.78,10.47-18.78,14.19-21.38,11.34-48.05,7.65-67.19-6.23-56.5,41.64-132.17-24.21-87.47-83.43l8.97-9.52c-19.27.78-42.8,5.55-45.03-20.47-2.1-24.42,1.64-51.8.04-76.54,1.37-22.12,42.72-23.94,53.55-12.05,3.26,3.58,3.67,12.64,10.47,8.56,2.28-1.37,4.55-10.33,11.98-13.51,2.64-1.13,7.06-1.77,10-2,6.11-.47,16.13-.41,22,1,1.7.41,4.93,3.66,7,2.58,4.09-2.16,11.52-22.3,12.71-27.37,2.94-12.59,2.31-25.4,2.3-38.2,2.45,4.64,5.6,10.02,9.99,13-1.09-15.81-2.8-31.64-2.03-47.54.2-4.22,3.75-35.1,5.05-36.46,2.9-3.03.99,4.57,1.05,5.34.91,11.56,2.59,32.3,15.94,35.65-.96-28.1,14.01-51.5,31.51-71.99.46,6.86-4.91,13.18-5.51,19.99-.59.02-1.8-.15-1.98,0-.29.26-1.99,6.49-2.04,7.49-.12,2.38,1.53,1.69,3.43,1.42,24.76-3.56,55.56-37.81,64.59-59.91.74-1.82,2.62-3.76,3-6,12.67-13.25,22.35-49.12,15.49-65.99-.55-1.34-5.61-10.92-7.49-9-.73.75,2.3,4.13,2.75,5.74,3.22,11.38.29,36.13-4.28,47.24-5.52,13.41-18.3,22.34-31.48,27.02-.52-.03-1.01-.52-1-1,3.99-.36,7.72-4.13,10.53-6.97,6.74-6.83,16.55-20.79,16.52-30.54,0-1.41-1.06-3.09-1.05-3.49.21-4.75,1.85-9.91.99-14.99-2.74,1.1-1.61,5.93-2.24,8.26-.45,1.66-1.03,3.2-1.75,4.74-6.74-3.35-11.58,3.29-18.49,4-16.49,1.7-17.15-6.3-18.46-19.54-.18-1.81.34-3.73-2.04-4.46,1.07-4.95,3.81-10.5,8.07-13.43,8.63-5.96,18.66-.74,24.49-11.51,7.83-14.49-5.06-30.37-18.06-36.04-1.29,1.23,1.33,3.9,2.1,4.9,2.18,2.84,5.26,5.43,7.41,8.09h-1c-.49-.76-1.16-.89-2-1l-.51-.99-1.49.99c-2.14-.05-5-.27-7,0-8.36,1.13-12.32,4.08-22.39,2.89-7.03-.83-13.31-6.11-20.61-2.89,2.78-3.97,6.62-8.01,9-12,6.76-11.35,9.18-31.42,1-42.5-7.27-9.84-15.58-10.7-26.49-12.51-2-.33-3.1-1.12-1.51-2.99,1.24-.23,9.65-4.25,11.31-5.19,4.76-2.71,8.47-6.83,13.06-9.73,9.86,10.29,22.06,21.43,37.64,18.93,5.4-.87,3.36-5.26,4.04-5.95.3-.3,6.43-.01,7.96-.05,6.26-.13,10.73-.05,17-1,5.07-.77,30.67-6.36,33.08-8.47.77-.67.75-2.4.92-2.53.27-.22,1.78.25,2,0,2.16-2.57-2.84-1.78-4-2-13.16-2.44-22.9-7.6-32.51-16.99-1.37-.31-1.89.07-1.47,1.47,1.19,3.96,4.23,9.58,5.99,13.52.13,2.71,1.37,5.18,1,8-16.2,1.29-29.2-8.18-39.99-19-.85,2.62,1.51,1.59,1.95,2.73,1.3,3.4,3.78,12.72,4.04,16.27.12,1.66-.8,3.39-1,5-14.48-3.67-28.03-13.44-33.01-28-1.51-.35-1.6.21-2.43,1.05-3.47,3.5-6.97,10.2-11.06,13.94-1.96,1.79-13.4,10.07-15.49,8.01-.96-9.22,2.41-17.91,2.99-27l-29.31,21.18c-4.58,2.18-9.5,4.28-14.68,3.81,3.85-11.73,5.74-25.38,16.06-33.43,7.48-5.83,17.57-7.46,24.96-12.04,2.37-1.47,4.52-2.11,3.97-5.52-8.16-2.58-17.4-.57-25-4.01,46.14-16.65,120.71-17.93,160.01,15.49,3.61,3.07,17.28,20.09,18.63,20.35,4.13.79,24.75-20.2,28.38-24.31,40.14-45.38,52.65-116.38,17.38-168.43-2.13-3.14-15.9-22.03-19.97-16.15-.38,7.63,2.98,15.66,3.55,23.57,3.06,42.57-17.65,81.82-33.47,119.5-4.35,10.37-8.53,35.16-23.94,32.95-6.97-1-4.99-5.39-5.58-9.96,5.92.88,8.19-4.54,10.55-8.95,8.99-16.83,19.27-40.53,26.63-58.37,2.46-5.97,14.82-37.66,11.82-41.67-.65.03-1.35-.09-1.99,0,1.47-1.08,2.34-.38,3.11-2.44.87-2.34,1.7-11.05,1.88-14.07.83-13.34-1.28-24.38-1.97-37-.63-11.57,5.33-17.45,16.34-11.35,27.97,15.5,42.27,69.21,41.65,98.85ZM388.7,810v-59.5c0-.11-1.39-1.5-1.5-1.5h-16c-.75,0-2.27,2.43-2.47,3.53-.57,2.97-.9,11.28-1.07,14.93-.95,20.05.38,40.49.53,60.55,1.34,1.49,3.12,1.79,4.99,2.01,9.94,1.13,32.93.96,43.07.03,1.45-.13,6.45-.94,6.45-2.55v-16.5c-.98.32-2.17-1-2.5-1h-31.5ZM452.7,750c-3.67-1.15-21-2.88-21,2.5v75.5c.98-.32,2.17,1,2.5,1h51c.11,0,1.5-1.39,1.5-1.5v-16c0-.11-1.39-1.5-1.5-1.5h-32.5v-60ZM573.68,827.96l-29.49-76.94c-2.9-3.68-13.84-1.83-18.5-1.53l-29.52,78.53c1.94,3.12,15.58,2.4,18.49.44,4.05-2.72,2.27-12.79,8.49-13.51,7.32-.84,16.39.61,23.92.19,2.49.86,3.82,11.4,6.68,13.32,4.57,3.07,14.94,1.24,19.93-.5ZM622.72,784.99l-23.45-35.06c-2.46-1.47-13.89-1.78-15.66.47v77.19c2.46,3.21,17.56,3.83,18.93-.26l-.83-39.34,21.63,27.83,3.05-1.15,20.29-26.68-.83,39.34c1.37,4.09,16.47,3.46,18.93.26v-77.19c-1.73-2.21-13.36-1.99-15.66-.47l-24.35,34.44c.09,1.01-1.89.77-2.06.62ZM755.71,829l-.96-6.55-28.2-70.8c-1.45-4.16-17-3.16-19.19-1.74l-29.25,78.13c4.45,2.62,17.15,3.13,20.05-1.08,1.56-2.25,2.78-11.02,5.17-11.83,3.84.24,26.44-1.02,27.48.46,1.73,2.47,2.3,11.16,5.89,12.9,5.36,2.6,13.31.37,19,.5ZM418.05,878.35c6.42-5.95,16.13-6.94,24.21-4.41,2.87.9,11.22,6.36,12.76,5.97,5.33-7.34,13.79-12.33,3.38-19.11-21.46-13.98-55.65-6.52-64.88,18.51-14.01,37.99,23.51,66.03,59.17,52.17,18.04-7.01,12.21-9.04,2.39-21.42-1.73-.52-8.24,5.25-11.38,6.43-20.32,7.63-37.96-11.81-30.18-31.18.69-1.72,3.25-5.75,4.55-6.95ZM504.48,854.28c-47.24,5.71-46.73,74.28-1.02,80.46,67.27,9.1,65.51-88.26,1.02-80.46ZM633.35,864.35c-39.09-34.38-94.69,18.36-61.16,56.66,37.82,43.2,106.26-16.99,61.16-56.66ZM678.7,886v-27.5c0-2.79-18.6-4.63-19.8.2l.29,74.31c1.73,2.93,17.27,2.98,19.02,0,1.96-3.32-.7-16.41.7-21.3.54-1.87,4.8-5.97,6.29-7.7,2.27,0,17.51,28.65,21.51,30.47,2.73,1.24,19.23,1.1,19.96-2.05.56-2.39-24.39-35.69-26.77-41.09-.31-3.2,21.22-26.71,24.28-31.37.68-1.04.85-1.93.06-3.02-1.34-1.85-18.06-1.29-20.91.17-6.84,3.5-16.79,24.03-24.63,28.87Z"/><path class="cls-6" d="M622.72,784.99c.18.15,2.15.39,2.06-.62l24.35-34.44c2.3-1.51,13.93-1.73,15.67.47v77.19c-2.46,3.21-17.56,3.83-18.93-.26l.83-39.34-20.29,26.68-3.05,1.15-21.63-27.83.83,39.34c-1.37,4.09-16.47,3.46-18.93.26v-77.19c1.77-2.25,13.2-1.94,15.66-.47l23.45,35.06Z"/><path class="cls-6" d="M504.48,854.28c64.49-7.8,66.25,89.56-1.02,80.46-45.71-6.18-46.22-74.75,1.02-80.46ZM534.08,894.88c0-12.48-10.12-22.6-22.6-22.6s-22.6,10.12-22.6,22.6,10.12,22.6,22.6,22.6,22.6-10.12,22.6-22.6Z"/><path class="cls-6" d="M633.35,864.35c45.1,39.66-23.34,99.86-61.16,56.66-33.53-38.3,22.07-91.03,61.16-56.66ZM627.58,894.88c0-12.47-10.11-22.58-22.58-22.58s-22.58,10.11-22.58,22.58,10.11,22.58,22.58,22.58,22.58-10.11,22.58-22.58Z"/><path class="cls-6" d="M678.7,886c7.84-4.84,17.79-25.37,24.63-28.87,2.85-1.46,19.58-2.02,20.91-.17.79,1.09.62,1.98-.06,3.02-3.06,4.65-24.59,28.17-24.28,31.37,2.38,5.4,27.33,38.71,26.77,41.09-.74,3.14-17.23,3.29-19.96,2.05-4.01-1.82-19.24-30.47-21.51-30.47-1.49,1.73-5.75,5.82-6.29,7.7-1.41,4.88,1.26,17.97-.7,21.3-1.76,2.98-17.29,2.93-19.02,0l-.29-74.31c1.2-4.83,19.8-2.99,19.8-.2v27.5Z"/><path class="cls-6" d="M418.05,878.35c-1.29,1.2-3.85,5.23-4.55,6.95-7.78,19.37,9.86,38.81,30.18,31.18,3.14-1.18,9.65-6.94,11.38-6.43,9.83,12.39,15.65,14.41-2.39,21.42-35.66,13.86-73.19-14.18-59.17-52.17,9.23-25.02,43.43-32.48,64.88-18.51,10.41,6.78,1.95,11.77-3.38,19.11-1.53.39-9.89-5.07-12.76-5.97-8.08-2.53-17.8-1.55-24.21,4.41Z"/><path class="cls-6" d="M388.7,810h31.5c.33,0,1.52,1.32,2.5,1v16.5c0,1.61-5,2.41-6.45,2.55-10.13.93-33.12,1.1-43.07-.03-1.88-.21-3.65-.52-4.99-2.01-.15-20.06-1.48-40.5-.53-60.55.17-3.65.5-11.96,1.07-14.93.21-1.1,1.73-3.53,2.47-3.53h16c.11,0,1.5,1.39,1.5,1.5v59.5Z"/><path class="cls-6" d="M452.7,750v60h32.5c.11,0,1.5,1.39,1.5,1.5v16c0,.11-1.39,1.5-1.5,1.5h-51c-.33,0-1.52-1.32-2.5-1v-75.5c0-5.38,17.33-3.65,21-2.5Z"/><circle class="cls-1" cx="511.47" cy="894.88" r="22.6"/><circle class="cls-1" cx="605" cy="894.88" r="22.58"/><path class="cls-6" d="M573.68,827.96c-4.99,1.74-15.36,3.57-19.93.5-2.86-1.92-4.19-12.47-6.68-13.32-7.53.42-16.61-1.03-23.92-.19-6.22.72-4.44,10.79-8.49,13.51-2.91,1.96-16.55,2.68-18.49-.44l29.52-78.53c4.66-.3,15.6-2.15,18.5,1.53l29.49,76.94ZM542.7,799c-.19-2.08-7.43-22.16-8.99-21l-7.01,21h16Z"/><path class="cls-1" d="M542.7,799h-16l7.01-21c1.56-1.16,8.79,18.91,8.99,21Z"/><path class="cls-6" d="M755.71,829c-5.69-.13-13.64,2.1-19-.5-3.59-1.74-4.16-10.43-5.89-12.9-1.04-1.48-23.63-.22-27.48-.46-2.39.82-3.61,9.58-5.17,11.83-2.91,4.21-15.61,3.7-20.05,1.08l29.25-78.13c2.19-1.42,17.74-2.42,19.19,1.74l28.2,70.8.96,6.55ZM708.7,799h16c-.92-2.69-6.44-20.68-7.51-21.01-1.95-.61-1.45.99-1.94,2.02-1.02,2.15-7.29,18.3-6.55,18.99Z"/><path class="cls-1" d="M708.7,799c-.73-.69,5.53-16.84,6.55-18.99.49-1.02-.02-2.62,1.94-2.02,1.07.33,6.59,18.32,7.51,21.01h-16Z"/><path class="cls-4" d="M435.7,731l5.99-23c-4.02,3.12-8.36,8.33-13.98,7.51,2.21-5.14,4.52-10.42,6.28-15.72,3.48-10.54,10.62-31.12,11.61-41.39.08-.78.6-2.29-.39-2.39-2.2,3.09-4.65,5.98-7.49,8.51-1.49,1.33-4.13,3.43-6.02,3.98,3.06-6.88,4.82-14.17,6.52-21.48,2.59-11.15,6.98-29.55,7.52-40.5.12-2.4.02-2.51-1.25-.25-1.63,2.91-4.92,8.88-8.79,7.23l9.01-53.48-6.07,5.42-7.92,3.56,9.99-56.98-9.5,7.99c-.27-17.37,4.04-36.39,10.52-52.48-2.83.77-4.83,4.26-7.72,5.28-4.57,1.62-.93-7.44-.32-9.32,3.05-9.47,7.88-18.51,13.01-26.98-4.21.84-10.18,7.75-13.98,2.52,22.41-7.47,16.27-37.78,28.51-53l1.48,17.99-3-4.99c-1.6-.28-1.06,1.31-.79,2.28,4.95,17.19,28.3,17.54,35.8,1.71-2.25,11.65-5.34,19.12-13.03,28.47-5.21,6.34-10.88,9.29-14.46,17.54-7.08,16.35-5.51,36.89,1.49,52.99,1.66,3.82,4.88,9.84,7.58,12.92,1,1.14,1.54,2.47,3.42,2.07-.12-13.21,1.24-29.72,8.21-41.29,1.35-2.25,2.8-5.53,5.8-5.7-12.12,63.29,61.56,109.61,109,60-.38,2.24-2.26,4.18-3,6-9.17,10.16-15.78,22.2-26.52,30.98-7.15,5.84-29.69,19.71-37.48,20.02.6-6.82,5.97-13.13,5.51-19.99-17.5,20.49-32.47,43.89-31.51,71.99-13.35-3.36-15.02-24.09-15.94-35.65-.06-.78,1.85-8.37-1.05-5.34-1.3,1.36-4.85,32.24-5.05,36.46-.77,15.9.95,31.74,2.03,47.54-4.39-2.98-7.54-8.36-9.99-13-5.77-10.91-9.87-25.12-10.09-37.5-.05-2.79.96-5.23,1.13-7.96.07-1.09.64-3.79-1.03-3.53-.84,8.37-3.52,17.08-4.05,25.45-1.14,17.85,4.66,35.79,3.03,53.03-1.14,12.1-3.91,2.15-5.74-2.29-.61-1.49.61-2.72-2.25-2.2-.52,13.58-4.11,21.12-1.66,35.15.33,1.89,1.88,3.24-1.35,2.84-5.87-1.41-15.89-1.47-22-1Z"/><path class="cls-6" d="M676.7,356c-3.54-.48-1.42,1.49-1.46,3.04-.11,3.96.03,8.58-1.51,12.47l4.48-3.51c.8,3.53-3.1,7.81-4.96,11.04l-7.54,4.95c2.74.22,5.15.03,7.81-.68,3.85-1.02,11.31-8.68,8.96-.04-1.52,5.61-11.48,8.55-16.78,7.73.1,1.53,4.53,2.01,5.55,2.03,1.77.04,3.31-.49,4.93-1.06,2.6,4.32-9.89,3.68-10.39,4.11-1.45,10.45,3.15,36.08,11.39,42.92,6.91,5.74,14.89,2.2.52,10.47,8.8,11.96,10.89,27.08,12,41.51h-6c3.89,12.02,2.98,24.54,2.99,37l-7.01-.49,10.02,52.49c-3.99.42-7.75-.89-11.49-2.02.47,18.87,5.79,37.92,11.48,56.01l-12.97-2.51c3.7,10.14,5.32,20.86,8.96,31.03.97,2.7,7.18,15.1,7.02,15.95-.86,4.47-11.43-1.88-13.99-.98,6.03,16.36,10.73,33.05,19.95,48.02-4.67,4.24-9.83,2.05-14.95.49l6.99,17c-1.38,2.14-.75,8.15-7.06,3.55-3.95-10.29-10.01-21.83-12.49-32.51-.32-1.37-1.12-3.99.04-5.04,1.55,1.44,2.87,3.15,4.59,4.41.91.67,10.11,7.17,8.9,3.11l-19-56.01c2.09-1.36,3.71,3.08,6.1,4.9,2.12,1.61,4.42,2.69,6.9,3.59l-14-57.49c.71-1.34,1.22-.78,2.1.13,3.32,3.42,5.85,8.32,10.9,10.36l-12-64.49,8.35,10.15,5.66,2.33-12-63.49c-.15-2.97,1.14-.87,1.85.16,2.93,4.29,4.94,9.18,10.15,11.34.06-16.4-2.96-32.27-13-45.49.79-1.56,1.78-.01,2.55.45,1.75,1.04,10.19,7.06,11.46,6.03-1.74-9.83-4.09-19.63-9.16-28.33-1.19-2.03-6.88-5.75-1.78-5.24,3.05.31,8.18,2.17,9.94-1.42-12.72-2.97-16.93-16.45-19.92-27.59-1.93-7.2-3.13-24.91-8.06-28.94-.7-.57-1.75-1.06-2.03.03,1.93,4.83.93,9.59.02,14.48l3-5.99c1.57-.28,1.1,1.42.99,2.48-.36,3.55-2.23,7.47-4.01,10.51-.09.15-1.4,1.23-2,2-.27.35-.69.66-1,1-8.66,6.39-17.48,7.01-26,0-.34-.31-.7-.66-1-1-3.89-5.46-6.02-10.18-6-17,0-1.47-.11-2.92.06-4.4.2-1.82,1.81-3.19,1.43-4.61-6.64,2.87-19.38,20.02-10.35.65,7.35-15.76,24.51-24.64,40.57-14.85,3.14,1.91,4.71,5.51,8.28,6.21-.87-11.4-10.32-18.58-21.52-18.04-13.26.64-24.11,10.96-31.46,21.05,3.55-28.19,41.57-40.79,55.18-11.69,1.47,3.15.88,7.7,4.44,9.55,4.9-.64,5.49-4.97,6.37-8.86,1.2-5.3,1.1-5.65,0-11-.18-1.58.26-3.52,0-5-.22-1.26-.91-1.69-1-2l-1-3v-1c.53.53,11.3,8.66,12,9ZM638.84,382.71c0-2.76-2.24-5-5-5s-5,2.24-5,5,2.24,5,5,5,5-2.24,5-5Z"/><path class="cls-5" d="M511.7,352c-1.59,1.88-.49,2.66,1.51,2.99,10.91,1.81,19.22,2.67,26.49,12.51,8.18,11.08,5.76,31.15-1,42.5-10.45,3.03-20.86,12.8-22,24-3.73,3.58-4.07,11.03-1.87,15.37,3.6,7.1,12.84,5.15,19.11,6.89,22.32,6.21,12.67,45.68-10.48,36.48-4.38-1.74-11.96-13.89-14.79-11.24-4.39,4.11,1.44,23.11,3.85,28.19,5.59,11.8,15.3,23.68,29.16,24.83-4.02-8.44-11.73-14.05,2.57-13.55,11.83.41,24.17,4.28,36.45,1.04.25,4.32-3.95,7.91-3.99,11.99,0,.48.48.97,1,1-22.32,7.93-43.55,3.32-61.47-12.03-20.43-17.51-23.26-44.42-14.54-68.97-4.58,4.09-6.86,10.12-7.99,16-3,.17-4.45,3.46-5.8,5.7-6.96,11.57-8.32,28.09-8.21,41.29-1.87.39-2.42-.93-3.42-2.07-2.7-3.08-5.92-9.1-7.58-12.92,1.56-6.61,1.13-13.46,2.29-20.21.8-4.66,2.14-8.88,3.69-13.31,8.18-23.47,35.16-47.45,31.02-73.48l2.93-.41c-4.14-24.06-33.09-37.42-49.92-16.59.95-12.4,7.61-19.94,20.53-19.04,13.46.93,22.01,12.12,30.45,21.04-3.37-12.49-10.94-23.01-23.95-26.54-4.89-1.33-7.43-1.13-12.04-.46-.72-2.3,3.67-3.1,5.04-3.46,5.73-1.5,16.73-2.56,22.42-1.5,3.37.63,5.81,4.82,10.54,3.96Z"/><path class="cls-6" d="M473.7,353c4.61-.67,7.15-.87,12.04.46,13,3.54,20.57,14.06,23.95,26.54-8.44-8.92-16.99-20.11-30.45-21.04-12.92-.89-19.58,6.64-20.53,19.04,16.82-20.84,45.78-7.48,49.92,16.59l-2.93.41c-.62-3.88-5.91-6.95-8.99-9,1.07,6.39-.9,11.24-2.01,17-7.5,15.83-30.85,15.48-35.8-1.71-.28-.96-.81-2.56.79-2.28l3,4.99-1.48-17.99c-12.24,15.22-6.1,45.53-28.51,53,3.8,5.23,9.77-1.68,13.98-2.52-5.14,8.47-9.96,17.51-13.01,26.98-.61,1.88-4.25,10.94.32,9.32,2.89-1.02,4.89-4.51,7.72-5.28-6.47,16.1-10.78,35.11-10.52,52.48l9.5-7.99-9.99,56.98,7.92-3.56,6.07-5.42-9.01,53.48c3.87,1.65,7.16-4.32,8.79-7.23,1.27-2.26,1.37-2.15,1.25.25-.54,10.96-4.93,29.35-7.52,40.5-1.7,7.31-3.46,14.6-6.52,21.48,1.89-.55,4.53-2.65,6.02-3.98,2.84-2.53,5.29-5.42,7.49-8.51,1,.1.47,1.61.39,2.39-.99,10.27-8.13,30.85-11.61,41.39-1.75,5.31-4.06,10.59-6.28,15.72,5.62.82,9.96-4.39,13.98-7.51l-5.99,23c-2.94.23-7.36.87-10,2l2.99-10c-3.93,1.79-7.36,2.4-11.52,1.02-1.12-.37-1.77.73-1.47-1.5.72-5.43,7.47-15.44,9.76-21.25,3.04-7.68,4.79-15.88,7.25-23.75-2.11-.78-3.87,1.17-6.49,1.51-2.09.27-5.52.21-7.52-.52,9.02-16.85,13.58-36.66,16-55.51-.66-.67-8.1,1.67-8.03-2.49l8.02-45.51c-.98-1.06-13.51,7.01-15.97,2.5,4.26-4.96,12.59-46.34,10.97-48.51-2.66,1.22-5.31,2.12-5.98-1.51-2.52-13.71,2.54-31.32,5-44.97-6.49-.09-5.48-1.78-5-8,.81-10.47,5.62-19.76,10-29-17.74-5.06-4.74-6.84,1.91-12.09,8.84-6.97,11.73-25.72,11.08-36.43-4.5.72-8.1-1.29-12-3.01l8.99-2.98c-5.29.93-14.62-5.86-15.98-10.53-.43-1.47.11-1.7,1.49-1.5,4.13.61,10.64,6.97,16.49,5.01-1.11-2.48-4.22-2.51-6.03-4.46-.37-.39-4.78-6.65-4.96-7.04-.24-.53-.19-1.7.49-1.48l8.51,4.98c-3.29-6.32-5.07-15.05-3-21.99,1.09-3.64,6.23-11.27,8.49-15.01.49-.82,1.1-3.33,2.49-2.5-2.86,4.47-7.86,38.39-1.48,38.49,8.34-11.48,7.4-19.63,23.5-21.98ZM488.04,382.87c0-2.77-2.24-5.01-5.01-5.01s-5.01,2.24-5.01,5.01,2.24,5.01,5.01,5.01,5.01-2.24,5.01-5.01Z"/><path class="cls-4" d="M489.7,285c7.6,3.44,16.84,1.43,25,4.01.54,3.4-1.6,4.04-3.97,5.52-7.39,4.58-17.47,6.21-24.96,12.04-10.32,8.05-12.21,21.7-16.06,33.43,5.18.47,10.1-1.63,14.68-3.81l29.31-21.18c-.58,9.09-3.95,17.78-2.99,27,2.08,2.06,13.53-6.22,15.49-8.01,4.09-3.74,7.6-10.43,11.06-13.94.83-.84.92-1.41,2.43-1.05,4.98,14.56,18.54,24.33,33.01,28-.03.28,1.12,1.34.59,3.01-.61,1.94-2.97,2.9-2.59,4.98l3,1.01c-15.57,2.5-27.78-8.63-37.64-18.93-4.59,2.91-8.3,7.02-13.06,9.73-1.66.94-10.07,4.97-11.31,5.19-4.73.87-7.17-3.33-10.54-3.96-5.69-1.06-16.69,0-22.42,1.5-1.37.36-5.76,1.15-5.04,3.46-16.1,2.35-15.16,10.5-23.5,21.98-6.38-.1-1.39-34.02,1.48-38.49-1.39-.83-1.99,1.69-2.49,2.5-2.26,3.74-7.4,11.37-8.49,15.01l-7,1.99c4.05-7.04,3.73-16.91,6-23.99,1.75-5.47,17.9-27.23,22-32,7.17-8.34,17.78-11.31,28-15ZM483.7,343.99c10.01.1,18.66-6.92,22.98-15.5l-22.98,15.5Z"/><path class="cls-6" d="M529.7,422c-.96,1.38-1.84,1.86-3,4-3.16,5.86-6.52,11.69-1.49,18,1.26-13.96,12.73-10.61,18.93-1.93,4,5.6,4.18,15.53,13.07,13.93,2.15-.39,1.91-1.57,2.49-1.99,4.78-3.52,6.92-11.82,10-17,.24-.3.67-.63,1-1,4.95-4.04,11.09-5.66,14.79.71l1.2,10.28c4.44-8.59,4.05-16.48-1.99-23.99-2.15-2.67-5.23-5.26-7.41-8.09-.77-1-3.39-3.67-2.1-4.9,13,5.68,25.89,21.55,18.06,36.04-5.82,10.78-15.86,5.55-24.49,11.51-4.25,2.94-7,8.49-8.07,13.43-2.16,10.03-2.96,29.4,10.48,31.02,11.11,1.34,23.27.21,28.52-11.02.72-1.54,1.3-3.08,1.75-4.74.64-2.33-.5-7.15,2.24-8.26.86,5.09-.78,10.24-.99,14.99-11.36,21.34-40.79,23.34-62.23,19.73-15.34-2.58-33.8-11.36-31.77-29.72,3.29-.8,1.63,3.59,2.42,6.07,4.11,12.82,18.28,14.67,30.01,12.86,15.65-2.41,14.05-34.64,3.46-44.34-6.3-5.77-11.93-4.21-18.97-6.03-7.37-1.91-9.61-10.89-8.93-17.57,1.14-11.2,11.55-20.97,22-24-2.38,3.99-6.22,8.03-9,12Z"/><path class="cls-6" d="M493.7,470c1.13-5.88,3.41-11.9,7.99-16-8.71,24.55-5.89,51.46,14.54,68.97,17.92,15.35,39.15,19.96,61.47,12.03,13.18-4.68,25.96-13.61,31.48-27.02,4.57-11.11,7.49-35.85,4.28-47.24-.46-1.61-3.48-4.99-2.75-5.74,1.88-1.92,6.94,7.66,7.49,9,6.85,16.87-2.82,52.75-15.49,65.99-47.44,49.61-121.12,3.29-109-60Z"/><path class="cls-5" d="M479.7,669c.01,12.81.65,25.61-2.3,38.2-1.19,5.08-8.62,25.22-12.71,27.37-2.06,1.09-5.3-2.17-7-2.58,3.23.4,1.68-.95,1.35-2.84-2.45-14.03,1.14-21.57,1.66-35.15,2.85-.52,1.63.71,2.25,2.2,1.83,4.43,4.6,14.38,5.74,2.29,1.63-17.24-4.17-35.18-3.03-53.03.54-8.38,3.21-17.08,4.05-25.45,1.67-.27,1.09,2.44,1.03,3.53-.16,2.73-1.18,5.18-1.13,7.96.22,12.39,4.32,26.6,10.09,37.5Z"/><path class="cls-4" d="M579.7,422c.46,0,1.9-.01,2,0,.84.11,1.51.24,2,1,5.24,9.57-7.31,6.04-12.74,11.29-.49.48-.13,1.56-.26,1.71-.33.37-.76.7-1,1-1.28,1.63-5.01,5.97-5.73,7.27-.62,1.12.09,3.01-.42,3.62-.43.5-5.21,0-3.85,6.11-.58.43-.34,1.61-2.49,1.99-8.89,1.59-9.07-8.33-13.07-13.93-6.2-8.68-17.67-12.02-18.93,1.93-5.03-6.31-1.67-12.14,1.49-18,4.76.07,7.36-.23,11.98,1.51,6.1,2.3,12.08,10.82,16.51,10.59s4.93-4.85,7.51-7.6c2.93-3.12,8.75-4.44,10-8.5,2-.27,4.86-.05,7,0Z"/><path class="cls-5" d="M599.7,536c-9.04,22.11-39.83,56.35-64.59,59.91-1.9.27-3.55.97-3.43-1.42.05-1,1.75-7.23,2.04-7.49.18-.16,1.4.02,1.98,0,7.79-.31,30.33-14.18,37.48-20.02,10.74-8.78,17.36-20.82,26.52-30.98Z"/><path class="cls-5" d="M599.7,491c-5.26,11.23-17.41,12.36-28.52,11.02-13.44-1.62-12.64-21-10.48-31.02,2.39.73,1.87,2.65,2.04,4.46,1.31,13.24,1.97,21.24,18.46,19.54,6.91-.71,11.76-7.35,18.49-4Z"/><path class="cls-4" d="M607.7,342c-.53,4.1-5.69,4.42-8.99,5.01l3.99,1.99c-6.27.95-10.74.87-17,1,.53-2.42-1.23-2.07-2.63-2.82-3.17-1.69-6.14-3.65-9.37-5.18-.26-3.55-2.74-12.87-4.04-16.27-.44-1.14-2.8-.11-1.95-2.73,10.79,10.82,23.79,20.29,39.99,19Z"/><path class="cls-4" d="M666.7,369c-2.39-10.22-4.62-18.47-9.83-27.67-9.92-17.53-28.18-33.86-44.17-45.83,8.1.44,18.43,7.23,23.43,13.57s9.28,10.32,14.53,16.47,9.73,17.17,14.03,21.47v1c-.61,1.44.84,2.45,1,3,.09.31.78.74,1,2-2.63,1.45-.2,4.03,0,5,1.1,5.35,1.2,5.7,0,11Z"/><path class="cls-5" d="M572.7,422c-1.25,4.06-7.07,5.38-10,8.5-2.58,2.74-3,7.36-7.51,7.6s-10.41-8.29-16.51-10.59c-4.63-1.74-7.22-1.45-11.98-1.51,1.16-2.14,2.04-2.62,3-4,7.3-3.21,13.58,2.06,20.61,2.89,10.07,1.19,14.03-1.77,22.39-2.89Z"/><path class="cls-4" d="M619.7,411c.3.34.66.69,1,1,4.74,4.31,9.88,8.41,16.83,6.33.72-.21,7.57-3.35,7.91-3.61.76-.57.76-2.19,1.25-2.72.31-.34.73-.65,1-1h2c-.37,6.4-5.24,15.69-12,17,2.96-1.58,6.96-4.23,6.99-8-6.95,4.28-17.84,5.56-25.27,1.78-2.6-1.32-3.56-4.5-6.72-4.78-.12-.27.11-.69,0-1l-1-1c-1.2-4.97-1.33-10.91-1-16l2-1.49c-.27,5.41,3.7,9.86,7,13.49Z"/><path class="cls-5" d="M607.7,330c-.15,1.57.44,2.12,2,2,6.11,8.51,17.83,8.44,27,6-.17.14-.15,1.86-.92,2.53-2.41,2.1-28,7.69-33.08,8.47l-3.99-1.99c3.3-.59,8.46-.91,8.99-5.01.37-2.82-.87-5.29-1-8-.02-.32,1.11-2.27,0-3.48l1-.52Z"/><path class="cls-4" d="M634.7,336c-7.28,2.64-16.73.65-23.22-3.08-1.11-.64-.72-1.85-.8-1.91-.72-.55-.91.98-.98.99-1.56.12-2.15-.43-2-2,.22.22,1.02-.15,1-.5-.07-1.09-1.47.03-1,.5l-1,.52c1.11,1.21-.02,3.16,0,3.48-1.76-3.94-4.79-9.56-5.99-13.52-.42-1.4.1-1.78,1.47-1.47,9.61,9.39,19.36,14.55,32.51,16.99Z"/><path class="cls-5" d="M612.7,417c3.17.27,4.13,3.45,6.72,4.78,7.43,3.78,18.32,2.5,25.27-1.78-.03,3.77-4.03,6.42-6.99,8-10.11,5.38-20.71-.95-25-11Z"/><path class="cls-5" d="M573.7,342c3.23,1.53,6.2,3.49,9.37,5.18,1.4.75,3.16.4,2.63,2.82-1.53.03-7.66-.26-7.96.05-.68.7,1.36,5.09-4.04,5.95l-3-1.01c-.38-2.09,1.98-3.04,2.59-4.98.53-1.66-.63-2.73-.59-3.01.2-1.61,1.12-3.34,1-5Z"/><path class="cls-3" d="M609.7,332c.07,0,.26-1.54.98-.99.08.06-.31,1.27.8,1.91,6.49,3.73,15.94,5.72,23.22,3.08,1.16.21,6.15-.57,4,2-.21.25-1.72-.22-2,0-9.17,2.44-20.89,2.51-27-6Z"/><path class="cls-5" d="M613.7,394c-.02,6.82,2.11,11.54,6,17-3.3-3.64-7.27-8.08-7-13.49l-2,1.49c.16-2.4.6-4.64,1.01-6.99h.98s1.01,1.99,1.01,1.99Z"/><path class="cls-5" d="M581.7,422c-.1-.01-1.54,0-2,0l1.49-.99.51.99Z"/><path class="cls-5" d="M649.7,411h-2c.6-.77,1.91-1.85,2-2-.03.66.04,1.34,0,2Z"/><path class="cls-5" d="M612.7,416c-.04-.1-.85-.39-1-1l1,1Z"/><path class="cls-6" d="M668.7,163c2.8,16.5-4.44,40.23-16.45,52.05-5.59,5.5-13.54,8.44-19.38,13.62-.15,6.93-.38,13.94-.21,20.88.23,8.86.94,19.91,2.04,28.46.59,4.57-1.4,8.96,5.58,9.96,15.41,2.21,19.59-22.58,23.94-32.95,15.82-37.68,36.53-76.93,33.47-119.5-.57-7.91-3.93-15.93-3.55-23.57,4.07-5.88,17.84,13,19.97,16.15,35.27,52.05,22.76,123.05-17.38,168.43-3.64,4.11-24.25,25.1-28.38,24.31-1.36-.26-15.02-17.28-18.63-20.35-39.3-33.42-113.87-32.14-160.01-15.49-10.22,3.69-20.83,6.66-28,15-5.76,4.42-11.34,12.34-17.09,16.41-2.32,1.64-3.8,3.47-6.86,2.09-5.11-2.31-25.32-24.15-29.46-29.58-35.38-46.45-44.94-117.25-7.56-165.39,2.04-2.62,13.06-16.61,16.52-11.58,1.33,1.93-3.33,21.85-3.59,26.51-2.23,38.97,23.27,96.66,39.87,132.22,3.45,7.4,9.28,19.37,19.45,17.13,5.27-1.16,4.13-5.19,4.73-8.8.84-5.06,1.8-11.39,2.04-16.46.29-6.05,1.03-30.66-.23-34.85-.61-2.01-11.37-6.42-14.31-8.69-17.49-13.51-24.06-34.35-21.5-56,2.78-23.53,27.42-42.4,50.84-41.16,18.13-44.78,78.6-52.43,110.55-17.74,2.95,3.2,10.7,16.87,11.6,17.4,1.92,1.13,15.24,2.75,20.27,4.73,13.64,5.38,29.24,22.08,31.74,36.76ZM650.7,195c2.44-4.83,4.98-9.14,5.74-14.76,3.8-28.04-19.71-51.48-47.73-45.23-5.28-28.09-37.11-42.28-63.39-37.89-19.2,3.21-40.05,17.32-42.63,37.89-27.41-6.38-52.54,17.34-46.99,44.99-.5,13.15,18.31,36.16,31.52,36.04,3-.03,19.48-7.13,24.49-8.53,2.95-.83,5.86-1.74,8.99-1.52-5.78-6.43-10.42-14.08-10.99-22.99l5.99,10.49c26.05,23.2,66.1,15.77,87.99-9.5.22,8.64-5.56,15.87-10.99,21.99,6.99,1.67,13.95,3.43,20.77,5.74,7.84,2.66,9.52,6.78,17.6,3.14,9.57-4.3,15.09-10.89,19.62-19.87ZM442.7,308.99c-6.66-9.87-10.25-22.58-11.04-34.45-.84-12.55,1.8-28.96-.19-40.81-1.99-11.8-12.61-31.63-16.24-44.76-3.05-11.01-6.14-27.11-6.56-38.44-.26-6.97,1.32-13.75.55-20.54-31.8,45.68-26.95,105.9,4.68,150.31,6.05,8.49,14.17,18.28,22.34,24.66,1,.78,5.72,4.74,6.48,4.01ZM668.7,308.99c1.72,1.65,16.35-12.62,18.03-14.46,40.55-44.77,50.86-113.6,15.47-164.52.41,23.43-2.72,45.32-9.23,67.76-3.14,10.84-8.8,21.97-11.54,32.46-4.15,15.86.37,36.6-3.01,54.99-1.56,8.44-4.99,16.67-9.71,23.78ZM542.7,216c-11.61.35-23.21-.13-35.21,2.29-2.88.58-16.79,3.74-16.79,7.21v50.5c13.28-5.85,27.57-8.62,42-10,21.16-2.03,51.42-2.5,71.76,3.74,6.05,1.86,11.42,4.94,17.24,7.26v-52.5c-11.34-5.66-25.8-7.37-38.51-8.49-14.25-1.26-26.42-.43-40.49,0Z"/><path class="cls-1" d="M367.7,200c-.28-22.49,7.79-49.2,18.83-68.67,5.48-9.68,26.09-40.15,38.74-25.39,6.09,7.1-.13,30.08-.56,39.57-.37,8.22.58,15.86,2,23.91l3.99-.42c-.68.44-2.03,2.12-3.05,2.71,7.13,36.41,26.61,68.9,41.21,102.62,1.96,3.14,5.01,5.09,8.83,4.67-.6,3.62.54,7.64-4.73,8.8-10.17,2.24-15.99-9.73-19.45-17.13-16.6-35.56-42.1-93.24-39.87-132.22.27-4.66,4.92-24.58,3.59-26.51-3.46-5.04-14.49,8.95-16.52,11.58-37.38,48.14-27.82,118.93,7.56,165.39,4.14,5.43,24.34,27.27,29.46,29.58,3.06,1.38,4.54-.45,6.86-2.09,5.75-4.06,11.34-11.99,17.09-16.41-4.1,4.77-20.25,26.53-22,32-21.98-11.9-40.64-35.26-52.17-57.33-10.83-20.72-19.54-51.57-19.83-74.67Z"/><path class="cls-2" d="M443.7,163c-2.56,21.65,4.01,42.49,21.5,56,2.94,2.27,13.7,6.68,14.31,8.69,1.27,4.19.52,28.8.23,34.85-.24,5.07-1.2,11.4-2.04,16.46-3.82.42-6.88-1.52-8.83-4.67-14.6-33.72-34.08-66.21-41.21-102.62,1.02-.59,2.37-2.27,3.05-2.71.63-.41,2.71-1.27,4-2,1.02-.57,2.66-1.29,4-2,1.6-.85,3.15-1.79,5-2Z"/><path class="cls-2" d="M681.7,169c.65-.08,1.34.04,1.99,0,3,4.02-9.35,35.7-11.82,41.67-7.36,17.84-17.64,41.54-26.63,58.37-2.36,4.41-4.63,9.83-10.55,8.95-1.1-8.55-1.81-19.6-2.04-28.46-.18-6.94.06-13.94.21-20.88,5.84-5.18,13.79-8.12,19.38-13.62,12.02-11.81,19.26-35.55,16.45-52.05,3.55-.23,9.7,6.42,11.68,6.84.77.16,1.16-.82,1.32-.84Z"/><path class="cls-1" d="M455.7,180c-5.55-27.65,19.57-51.38,46.99-44.99,2.58-20.57,23.43-34.68,42.63-37.89,26.28-4.4,58.11,9.8,63.39,37.89,28.02-6.25,51.53,17.19,47.73,45.23-.76,5.62-3.3,9.93-5.74,14.76-8.76,6.29-24.52,11.04-32,.5-4.81-6.76-.82-23.1-6.52-23.58-1.71-.14-23.3,12.44-27.79,14.25-28.92,11.69-67.07,4.52-79.44-26.92-1.28-3.25-3.24-14.67-3.68-15.32-1.71-2.52-15.06-.24-18.36.76-14.04,4.25-26.64,20.67-27.2,35.3Z"/><path class="cls-4" d="M650.7,195c-4.53,8.98-10.05,15.57-19.62,19.87-8.09,3.63-9.76-.49-17.6-3.14-6.82-2.31-13.77-4.07-20.77-5.74,5.43-6.12,11.21-13.35,10.99-21.99-21.89,25.27-61.94,32.69-87.99,9.5l-5.99-10.49c.57,8.91,5.21,16.55,10.99,22.99-3.13-.22-6.04.69-8.99,1.52-5.01,1.4-21.49,8.5-24.49,8.53-13.21.12-32.02-22.89-31.52-36.04.56-14.64,13.16-31.05,27.2-35.3,3.3-1,16.65-3.28,18.36-.76.44.65,2.4,12.07,3.68,15.32,12.37,31.44,50.52,38.61,79.44,26.92,4.49-1.81,26.08-14.39,27.79-14.25,5.71.47,1.72,16.81,6.52,23.58,7.49,10.53,23.25,5.79,32-.5Z"/><path class="cls-1" d="M542.7,216c14.07-.42,26.24-1.25,40.49,0,12.7,1.12,27.17,2.83,38.51,8.49v52.5c-5.82-2.32-11.18-5.4-17.24-7.26-20.34-6.24-50.6-5.77-71.76-3.74,1.59-16.99,4.77-33.79,10-50Z"/><path class="cls-3" d="M668.7,308.99c4.72-7.11,8.15-15.34,9.71-23.78,3.39-18.39-1.13-39.13,3.01-54.99,2.74-10.49,8.4-21.62,11.54-32.46,6.51-22.44,9.64-44.33,9.23-67.76,35.39,50.92,25.08,119.75-15.47,164.52-1.67,1.85-16.31,16.11-18.03,14.46Z"/><path class="cls-3" d="M442.7,308.99c-.76.72-5.47-3.23-6.48-4.01-8.17-6.38-16.29-16.17-22.34-24.66-31.63-44.41-36.48-104.63-4.68-150.31.77,6.78-.8,13.56-.55,20.54.42,11.33,3.51,27.43,6.56,38.44,3.63,13.13,14.26,32.96,16.24,44.76,2,11.84-.64,28.25.19,40.81.79,11.87,4.38,24.58,11.04,34.45Z"/><path class="cls-4" d="M542.7,216c-5.23,16.21-8.41,33.01-10,50-14.43,1.38-28.72,4.15-42,10v-50.5c0-3.46,13.91-6.62,16.79-7.21,12-2.43,23.6-1.94,35.21-2.29Z"/><path class="cls-1" d="M505.7,395c4.15,26.04-22.84,50.02-31.02,73.48-1.55,4.44-2.89,8.65-3.69,13.31-1.16,6.75-.74,13.6-2.29,20.21-7-16.09-8.57-36.63-1.49-52.99,3.58-8.26,9.25-11.21,14.46-17.54,7.69-9.35,10.78-16.82,13.03-28.47,1.11-5.76,3.08-10.61,2.01-17,3.08,2.05,8.37,5.12,8.99,9Z"/><circle class="cls-1" cx="633.84" cy="382.71" r="5"/><path class="cls-5" d="M646.7,412c-.49.53-.49,2.15-1.25,2.72-.35.26-7.2,3.39-7.91,3.61-6.95,2.08-12.1-2.02-16.83-6.33,8.52,7.01,17.34,6.39,26,0Z"/><path class="cls-1" d="M666.7,358c-.2-.97-2.63-3.55,0-5,.26,1.48-.18,3.42,0,5Z"/><path class="cls-1" d="M665.7,351c-.16-.55-1.61-1.56-1-3l1,3Z"/><circle class="cls-1" cx="483.03" cy="382.87" r="5.01"/><path class="cls-3" d="M483.7,343.99l22.98-15.5c-4.32,8.58-12.97,15.6-22.98,15.5Z"/><path class="cls-5" d="M584.7,423c6.04,7.51,6.42,15.4,1.99,23.99l-1.2-10.28c-3.7-6.37-9.84-4.75-14.79-.71.13-.15-.23-1.23.26-1.71,5.43-5.25,17.97-1.72,12.74-11.29h1Z"/><path class="cls-5" d="M559.7,454c-1.36-6.12,3.42-5.61,3.85-6.11.52-.61-.2-2.5.42-3.62.72-1.3,4.45-5.64,5.73-7.27-3.08,5.18-5.22,13.48-10,17Z"/><path class="cls-3" d="M607.7,330c-.47-.47.93-1.59,1-.5.02.35-.78.72-1,.5Z"/><path class="cls-4" d="M516.7,434c-.68,6.68,1.56,15.66,8.93,17.57,7.04,1.82,12.67.26,18.97,6.03,10.59,9.69,12.18,41.93-3.46,44.34-11.73,1.81-25.89-.04-30.01-12.86-.79-2.47.87-6.87-2.42-6.07-2.03,18.37,16.43,27.14,31.77,29.72,21.44,3.61,50.87,1.61,62.23-19.73-.02.4,1.04,2.08,1.05,3.49.04,9.76-9.78,23.71-16.52,30.54-2.81,2.85-6.54,6.61-10.53,6.97.05-4.09,4.25-7.68,3.99-11.99-12.28,3.24-24.62-.63-36.45-1.04-14.29-.5-6.59,5.11-2.57,13.55-13.86-1.15-23.57-13.03-29.16-24.83-2.41-5.08-8.24-24.08-3.85-28.19,2.83-2.65,10.42,9.5,14.79,11.24,23.14,9.21,32.79-30.26,10.48-36.48-6.26-1.74-15.51.2-19.11-6.89-2.2-4.34-1.86-11.79,1.87-15.37Z"/></svg>